<?xml version="1.0" encoding="UTF-8"?>
<svg version="1.1" xmlns="http://www.w3.org/2000/svg" width="550" height="500">
<path d="M0 0 C181.5 0 363 0 550 0 C550 165 550 330 550 500 C368.5 500 187 500 0 500 C0 335 0 170 0 0 Z " fill="#080808" transform="translate(0,0)"/>
<path d="M0 0 C1.11095256 -0.0060911 2.22190512 -0.01218221 3.36652291 -0.01845789 C7.06103397 -0.03500624 10.7551973 -0.03032365 14.44973755 -0.0255127 C17.11004808 -0.03285772 19.77033325 -0.04135341 22.43063354 -0.05117798 C28.88987028 -0.072157 35.34901711 -0.07677721 41.80828391 -0.07499009 C47.06202092 -0.0736788 52.31573005 -0.07750529 57.56946182 -0.08491516 C59.08688454 -0.08701451 60.60430725 -0.08911211 62.12172997 -0.09120798 C62.87715604 -0.09225151 63.63258212 -0.09329504 64.41089989 -0.09437019 C78.6742731 -0.11324177 92.9375948 -0.11223168 107.20097531 -0.10540086 C120.22809186 -0.09982618 133.25501171 -0.12065308 146.2820823 -0.15376133 C159.68332729 -0.18755419 173.08447818 -0.20265981 186.48576653 -0.1980443 C193.99956489 -0.19580545 201.51318142 -0.200957 209.02694321 -0.22593689 C215.42332457 -0.2470224 221.81942434 -0.25047054 228.21581756 -0.2316373 C231.47435014 -0.22252406 234.73225394 -0.22394733 237.99076462 -0.24199295 C255.03016254 -0.32981627 269.50004501 -0.18957448 282.43850708 12.39440918 C291.52286485 22.09281897 294.59412396 32.47889087 294.57894897 45.58999634 C294.58340566 46.80392636 294.58340566 46.80392636 294.58795238 48.04238021 C294.5966025 50.74583405 294.5981445 53.4492434 294.59963989 56.15270996 C294.60427072 58.09469191 294.60929574 60.03667296 294.61468506 61.97865295 C294.62778663 67.2495961 294.63424979 72.52052652 294.63869572 77.7914834 C294.64163043 81.08786724 294.64573602 84.38424763 294.65019989 87.68062973 C294.66386972 98.00375194 294.67353856 108.32686624 294.67740178 118.64999688 C294.68187958 130.54859342 294.69941676 142.44707492 294.72840238 154.34563649 C294.75005314 163.55436375 294.7601079 172.76305874 294.7614429 181.97181118 C294.76248861 187.46626963 294.76834647 192.96061987 294.78626251 198.45505142 C294.80280162 203.62775489 294.80487041 208.80026947 294.7961235 213.97299004 C294.79535622 215.86432719 294.79965486 217.75567475 294.80958176 219.64698601 C294.88904011 235.73821508 293.67776872 249.16205992 282.40335083 261.64831543 C274.49238175 269.2147051 264.69242809 274.4906575 253.62003613 274.53701019 C252.67246447 274.54331813 251.72489281 274.54962607 250.74860686 274.55612516 C249.71574705 274.55798716 248.68288723 274.55984916 247.61872864 274.56176758 C245.96316467 274.57045766 245.96316467 274.57045766 244.27415496 274.57932329 C240.56811966 274.5973903 236.86209958 274.60825683 233.15603638 274.61901855 C231.17782173 274.62734688 229.19960707 274.6356814 227.22139456 274.64450294 C217.818533 274.68635477 208.41564624 274.71362122 199.01272583 274.73815918 C198.26988202 274.74013408 197.5270382 274.74210898 196.76168397 274.74414372 C181.9956896 274.78332963 167.22968657 274.81700181 152.46365643 274.83922577 C149.21886368 274.84419462 145.97407106 274.849239 142.72927856 274.85437012 C141.51964445 274.85627612 141.51964445 274.85627612 140.28557328 274.85822064 C127.24065661 274.87955165 114.1959929 274.92851998 101.1512033 274.98861426 C87.73998326 275.04988383 74.3288933 275.08443498 60.91753513 275.09369898 C53.39505169 275.09959148 45.87299638 275.11716356 38.35065269 275.16508484 C31.93990372 275.20588826 25.52965287 275.2224872 19.11877992 275.20843202 C15.85359506 275.20200822 12.58968034 275.21037939 9.32461548 275.24230576 C-8.37810725 275.4061785 -22.36190175 274.52279871 -35.81149292 261.89440918 C-47.93495954 248.52054017 -49.16072274 234.12007174 -49.07907104 216.8572998 C-49.08450148 214.9159035 -49.09162927 212.97451132 -49.10031128 211.03312683 C-49.11843799 205.79548335 -49.11152134 200.5581575 -49.09879494 195.32050896 C-49.08861179 189.81864491 -49.0980753 184.31680662 -49.1043396 178.81494141 C-49.11160059 169.57852333 -49.10206901 160.34223353 -49.08297729 151.10583496 C-49.06121161 140.45331558 -49.06826408 129.80110253 -49.09028292 119.14859056 C-49.10848111 109.97450163 -49.11097367 100.80050449 -49.10052824 91.62640333 C-49.09431757 86.15939793 -49.09339053 80.69253613 -49.10667419 75.22554016 C-49.11829657 70.08384293 -49.11009101 64.94253759 -49.08709717 59.80088234 C-49.08184404 57.92287151 -49.08326503 56.04482724 -49.09214783 54.16683006 C-49.16335559 37.57206728 -46.95466004 24.27135565 -35.24899292 11.64440918 C-25.42603264 2.35880997 -13.12639656 -0.06873841 0 0 Z " fill="#FDFDFD" transform="translate(156.56149291992188,67.6055908203125)"/>
<path d="M0 0 C1.074013 -0.00694553 2.148026 -0.01389106 3.25458485 -0.02104706 C6.85979849 -0.03936915 10.46435797 -0.02903778 14.06959534 -0.01878357 C16.65170282 -0.02583937 19.23380616 -0.03458294 21.81590271 -0.04489136 C28.10520062 -0.06653626 34.39431762 -0.06640323 40.68364053 -0.05826581 C45.79552079 -0.05196638 50.90734828 -0.05310231 56.01922798 -0.05953789 C56.7467382 -0.06043954 57.47424842 -0.0613412 58.2238044 -0.06227018 C59.70173336 -0.06412138 61.1796623 -0.06598394 62.65759123 -0.06785773 C76.51777247 -0.08443801 90.37785192 -0.0757152 104.23802704 -0.05887216 C116.91783659 -0.04417609 129.59740915 -0.05880176 142.27718817 -0.08764232 C155.2974042 -0.11703662 168.31751085 -0.12800845 181.3377586 -0.11846012 C182.8105612 -0.11743757 184.28336382 -0.11644296 185.75616646 -0.11547661 C186.84312914 -0.11476202 186.84312914 -0.11476202 187.95205067 -0.114033 C193.05691707 -0.11186884 198.16167992 -0.12167303 203.26652336 -0.13624763 C210.13911997 -0.15559554 217.01126854 -0.1486905 223.88384628 -0.12404823 C226.40820532 -0.11902876 228.93259777 -0.12255931 231.45693016 -0.13519669 C234.89920674 -0.15106802 238.34001974 -0.13622989 241.78222656 -0.11352539 C242.78465832 -0.12536112 243.78709007 -0.13719685 244.81989855 -0.14939123 C249.19849044 -0.09058985 252.49175054 0.04239656 256.07653332 2.72212601 C258.68285176 5.78269068 259.20009596 6.8814172 259.1761322 10.82345581 C259.18850418 12.39879845 259.18850418 12.39879845 259.2011261 14.00596619 C259.17955444 15.14748138 259.15798279 16.28899658 259.13575745 17.46510315 C259.13663361 18.67527603 259.13750977 19.88544891 259.13841248 21.1322937 C259.13495289 24.44269478 259.10491009 27.75083918 259.06296873 31.06084085 C259.02541004 34.5227721 259.0219324 37.98473482 259.01481628 41.44683838 C258.99618223 47.99891481 258.94696576 54.55038915 258.88671935 61.10220069 C258.81960851 68.56279078 258.78665388 76.02340993 258.75654674 83.48422682 C258.69386458 98.82805424 258.58835878 114.17128127 258.4546051 129.5146637 C257.7946051 129.5146637 257.1346051 129.5146637 256.4546051 129.5146637 C255.04022104 127.94179686 253.69856109 126.30326374 252.3921051 124.6396637 C249.34434645 120.82630807 246.24960169 117.11657561 242.9546051 113.5146637 C239.93178089 110.19476883 237.02948349 106.81702258 234.2046051 103.3271637 C230.06757276 98.2188281 225.79605841 93.24307901 221.47438049 88.29127502 C218.70134059 85.11268056 215.94603979 81.92290481 213.2358551 78.69044495 C202.97357622 65.52082783 202.97357622 65.52082783 188.4546051 58.5146637 C179.95487348 57.81220654 171.61363876 57.17632255 164.4546051 62.5146637 C163.4852301 63.1952887 162.5158551 63.8759137 161.5171051 64.5771637 C156.90971465 68.64910066 153.26547866 73.71931446 149.4546051 78.5146637 C144.0206272 85.23822694 138.47131529 91.84660294 132.82643127 98.39283752 C129.96851054 101.71713448 127.17235044 105.07369299 124.4546051 108.5146637 C121.32286834 112.47937786 118.07039559 116.31843938 114.7671051 120.1396637 C108.15544206 127.79066822 101.7959053 135.63917796 95.4546051 143.5146637 C91.87192324 142.00742102 89.69937421 139.92825674 87.0405426 137.12013245 C86.19620667 136.2467926 85.35187073 135.37345276 84.48194885 134.47364807 C82.73076693 132.64380481 80.98582787 130.80796408 79.24757385 128.96583557 C71.77458465 121.27238754 63.87824498 115.47338354 52.8296051 115.2021637 C38.2475831 115.36028201 28.71882079 125.94902272 19.08351135 135.7256012 C18.1113664 136.70402999 17.13869552 137.68193647 16.16552734 138.65934753 C13.62830492 141.20975706 11.09675022 143.76570999 8.56684875 146.32337952 C4.49496916 150.43871858 0.41600125 154.54700709 -3.66601753 158.65228653 C-5.08934854 160.08585578 -6.50923416 161.52277369 -7.92880249 162.96006775 C-9.21132652 164.25238815 -9.21132652 164.25238815 -10.51976013 165.57081604 C-11.27506516 166.33437408 -12.03037018 167.09793213 -12.80856323 167.8846283 C-14.5453949 169.5146637 -14.5453949 169.5146637 -15.5453949 169.5146637 C-15.66212805 148.07048498 -15.75033396 126.62635856 -15.80445576 105.18192673 C-15.83025194 95.22518552 -15.86542945 85.26864158 -15.92259216 75.31202698 C-15.97238388 66.63516843 -16.00467562 57.95845272 -16.01583737 49.28145528 C-16.02236333 44.68576075 -16.0377303 40.0904749 -16.07404518 35.49491119 C-16.10793796 31.17089917 -16.11846158 26.84746484 -16.1109333 22.5233326 C-16.11231088 20.93499934 -16.12228375 19.34664712 -16.14142227 17.75842857 C-16.16625771 15.59147933 -16.16033794 13.42671842 -16.14666748 11.25971985 C-16.15127645 10.04664028 -16.15588541 8.83356071 -16.16063404 7.58372116 C-15.5453949 4.5146637 -15.5453949 4.5146637 -13.66690254 2.12526417 C-9.11027377 -0.22581399 -5.06004466 -0.04150513 0 0 Z " fill="#090909" transform="translate(158.54539489746094,101.48533630371094)"/>
<path d="M0 0 C0.33 0 0.66 0 1 0 C1.00054477 0.63554338 1.00108953 1.27108675 1.00165081 1.92588902 C1.01667591 17.45340036 1.05935239 32.98055949 1.13209057 48.50789738 C1.16661393 56.01709748 1.19207935 63.52611642 1.19555664 71.03540039 C1.19861429 77.5872565 1.21934399 84.13878894 1.26052457 90.69052023 C1.28169485 94.15359885 1.29453892 97.61621924 1.28615379 101.07936287 C1.07187273 121.60519471 1.07187273 121.60519471 7 141 C7.41956467 141.88490616 7.83912933 142.76981232 8.27140808 143.68153381 C14.59540699 156.2509243 24.58639437 166.10988485 37.0625 172.4375 C38.03497681 172.93262085 38.03497681 172.93262085 39.02709961 173.43774414 C47.4628801 177.4846746 55.68710869 178.29666478 64.95289612 178.2784729 C66.55701627 178.2871615 66.55701627 178.2871615 68.1935429 178.29602563 C71.75869829 178.31296185 75.32372372 178.31589667 78.88891602 178.31884766 C81.45179052 178.32815022 84.014662 178.33831938 86.57752991 178.34928894 C92.08585785 178.37092164 97.59415023 178.38655118 103.10251045 178.39665604 C111.06654379 178.4112762 119.03051302 178.43682227 126.99450862 178.46498732 C139.91730188 178.51039483 152.8401044 178.54703454 165.76293945 178.578125 C178.31210963 178.60833533 190.86125718 178.64269697 203.41040039 178.68261719 C204.18465473 178.68507874 204.95890907 178.68754028 205.75662566 178.69007643 C209.64104869 178.70245151 213.52547146 178.71490795 217.40989411 178.72740483 C249.60656534 178.83088213 281.80326129 178.92011516 314 179 C313.79818304 179.6018877 313.59636608 180.20377541 313.38843346 180.82390213 C313.12146471 181.62203701 312.85449596 182.42017189 312.57943726 183.24249268 C312.3157453 184.03000538 312.05205334 184.81751808 311.78037071 185.62889481 C310.61614362 189.16632243 309.54368385 192.72919951 308.4765625 196.296875 C308.00802947 197.84902385 307.53927234 199.40110506 307.0703125 200.953125 C306.34863862 203.34568389 305.62839988 205.73863602 304.91210938 208.1328125 C294.0923039 244.25844399 294.0923039 244.25844399 279.5546875 252.36328125 C268.37100156 257.43838626 255.93517436 257.41405703 244.22631836 253.94726562 C240.8331432 252.95100988 237.42615838 252.0310343 234.0078125 251.125 C232.67276569 250.77052472 231.33772348 250.41603214 230.00268555 250.06152344 C229.33272552 249.88391479 228.6627655 249.70630615 227.97250366 249.52331543 C224.98999501 248.73204045 222.00870249 247.93622006 219.02734375 247.140625 C217.87484131 246.83334473 216.72233887 246.52606445 215.53491211 246.20947266 C213.05514997 245.54809056 210.57550179 244.88628113 208.09594727 244.22412109 C201.95464088 242.58444569 195.8124483 240.9484373 189.66600037 239.328125 C186.91714485 238.60325905 184.16889405 237.87611555 181.42068481 237.14880371 C179.47562153 236.63506875 177.52968858 236.12463007 175.58374023 235.61425781 C174.39981689 235.30069336 173.21589355 234.98712891 171.99609375 234.6640625 C170.95638428 234.39029785 169.9166748 234.1165332 168.84545898 233.83447266 C166.1443671 233.04233777 163.60373181 232.06266807 161 231 C159.34178227 230.62690101 157.67422986 230.29299023 156 230 C152.42559768 229.32717133 149.37560438 228.35024175 146 227 C144.33773181 226.64538279 142.6703386 226.31441668 141 226 C137.42559768 225.32717133 134.37560438 224.35024175 131 223 C129.33773181 222.64538279 127.6703386 222.31441668 126 222 C122.42559768 221.32717133 119.37560438 220.35024175 116 219 C114.33773181 218.64538279 112.6703386 218.31441668 111 218 C107.42559768 217.32717133 104.37560438 216.35024175 101 215 C99.33773181 214.64538279 97.6703386 214.31441668 96 214 C92.42559768 213.32717133 89.37560438 212.35024175 86 211 C83.50746326 210.46825883 81.01041647 210.00182288 78.5 209.5625 C75.84503023 208.9651318 73.52389545 208.01183196 71 207 C68.80060524 206.40350605 66.59054864 205.84587282 64.375 205.3125 C62.93721649 204.96079237 61.49973905 204.60783222 60.0625 204.25390625 C59.26199219 204.05684082 58.46148437 203.85977539 57.63671875 203.65673828 C42.44586113 199.87308949 27.31622035 195.83655883 12.1875 191.8125 C10.9794873 191.4918457 9.77147461 191.17119141 8.52685547 190.84082031 C-27.37596543 181.26080284 -27.37596543 181.26080284 -36.9375 167.0625 C-44.08274483 154.19092421 -42.90790749 142.14838392 -39.0625 128.5 C-37.74957188 123.98700116 -36.38398124 119.49167099 -35 115 C-34.46246094 113.24864746 -34.46246094 113.24864746 -33.9140625 111.46191406 C-32.04561669 105.39112161 -30.15656555 99.32699803 -28.2578125 93.265625 C-26.08894981 86.32007839 -23.99704339 79.35366011 -21.9375 72.375 C-21.61362305 71.27784668 -21.28974609 70.18069336 -20.95605469 69.05029297 C-19.61941318 64.51464055 -18.28677438 59.97782285 -16.95605469 55.44042969 C-15.91029067 51.87633459 -14.86231917 48.31290269 -13.8125 44.75 C-13.47903564 43.61820313 -13.14557129 42.48640625 -12.80200195 41.3203125 C-10.67264444 34.1405762 -8.38157568 27.0400124 -5.953125 19.95703125 C-4.89302748 16.66812214 -4.13819888 13.39367897 -3.46875 10.0078125 C-2.65843884 6.53697971 -1.32197639 3.30494097 0 0 Z " fill="#FBFBFB" transform="translate(82,188)"/>
<path d="M0 0 C7.34414267 5.52714737 11.79741879 11.35439755 14.26171875 20.234375 C15.52262274 32.28570737 14.2679801 41.49773836 6.62109375 51.34765625 C0.58970268 57.92863669 -6.87158494 61.91136867 -15.7890625 62.40234375 C-26.51407689 62.46656539 -34.30828122 61.33013042 -42.73828125 54.234375 C-45.4185102 51.42752106 -47.63025487 48.4892551 -49.73828125 45.234375 C-50.17398438 44.56921875 -50.6096875 43.9040625 -51.05859375 43.21875 C-54.83411318 36.30136475 -55.00707162 27.89263436 -53.73828125 20.234375 C-51.50807748 13.551173 -48.26678784 7.70983271 -42.73828125 3.234375 C-42.16464844 2.73421875 -41.59101563 2.2340625 -41 1.71875 C-28.91475309 -8.25944986 -13.02173833 -8.39632771 0 0 Z " fill="#FCFCFC" transform="translate(213.73828125,124.765625)"/>
</svg>
